<svg width="97" height="45" viewBox="0 0 97 45" fill="none" xmlns="http://www.w3.org/2000/svg">
<path d="M20.3377 23.4579L18.9935 21.4729L17.6735 23.4579H15.5927L17.945 20.2223L15.6894 17.0559H17.7434L19.0445 18.8919L20.3188 17.0453H22.2948L20.0419 20.1478L22.4427 23.4579H20.3377Z" fill="#2041E0"/>
<path d="M26.7468 17.056H29.8062C30.4556 17.0444 31.0991 17.179 31.6881 17.4498C32.2132 17.6922 32.6566 18.0792 32.9651 18.5646C33.2611 19.0805 33.4167 19.6637 33.4167 20.2569C33.4167 20.8502 33.2611 21.4333 32.9651 21.9492C32.6566 22.4346 32.2132 22.8217 31.6881 23.0641C31.0991 23.3348 30.4556 23.4695 29.8062 23.4579H26.7468V17.056ZM29.731 22.0131C30.2233 22.0381 30.706 21.8709 31.0752 21.5474C31.3988 21.1945 31.578 20.7349 31.578 20.2583C31.578 19.7816 31.3988 19.3221 31.0752 18.9691C30.7064 18.6446 30.2237 18.4765 29.731 18.5008H28.5776V22.0131H29.731Z" fill="#2041E0"/>
<path d="M43.4498 22.0583V23.4579H38.2559V17.056H43.3289V18.4556H40.0571V19.5359H42.931V20.8876H40.0571V22.0583H43.4498Z" fill="#2041E0"/>
<path d="M50.1735 18.4556V19.8631H53.0285V21.2627H50.1735V23.4579H48.3453V17.056H53.4157V18.4556H50.1735Z" fill="#2041E0"/>
<path d="M58.1553 17.1464H59.9834V23.5324H58.1553V17.1464Z" fill="#2041E0"/>
<path d="M19.679 26.7866L17.8455 32.2094H17.039L15.5442 27.8802L14.0495 32.2094H13.1973L11.3665 26.7866H12.173L13.6516 31.1956L15.1947 26.7866H15.9125L17.4234 31.2196L18.9343 26.7866H19.679Z" fill="#2041E0"/>
<path d="M27.2388 30.8656H24.3273L23.7251 32.22H22.9186L25.4 26.7972H26.1742L28.6637 32.22H27.841L27.2388 30.8656ZM26.97 30.2457L25.7871 27.5848L24.6069 30.2457H26.97Z" fill="#2041E0"/>
<path d="M32.7634 26.7866H33.5457V31.5362H36.503V32.2094H32.7634V26.7866Z" fill="#2041E0"/>
<path d="M40.6997 26.7866H41.482V31.5362H44.4393V32.2094H40.6997V26.7866Z" fill="#2041E0"/>
<path d="M52.612 31.5362V32.2094H48.6359V26.7866H52.5018V27.4625H49.4182V29.1282H52.155V29.7854H49.4182V31.5362H52.612Z" fill="#2041E0"/>
<path d="M58.2549 27.4625H56.373V26.7866H60.9057V27.4625H59.0238V32.2094H58.2495L58.2549 27.4625Z" fill="#2041E0"/>
<path d="M76.6192 23.889C74.8879 24.9533 72.5705 25.5014 70.2235 25.3843C68.2503 25.2886 66.6319 24.5861 65.6533 23.4313C64.793 22.3989 64.4596 21.0365 64.6855 19.4693C64.762 18.9485 64.9188 18.4423 65.1505 17.9686L65.1828 17.9021C65.9951 16.3543 67.2005 15.0425 68.6806 14.0959C70.1606 13.1492 71.8641 12.6003 73.6236 12.5031C75.383 12.4059 77.1377 12.7638 78.7149 13.5416C80.2922 14.3194 81.6376 15.4903 82.6189 16.939C83.6001 18.3877 84.1833 20.0644 84.311 21.8039C84.4388 23.5434 84.1067 25.2859 83.3475 26.8598C82.5883 28.4337 81.4281 29.7849 79.981 30.7803C78.534 31.7757 76.8501 32.381 75.0949 32.5367L75.2025 33.758C77.1731 33.5843 79.0639 32.9054 80.6888 31.7884C82.3137 30.6713 83.6165 29.1545 84.4689 27.3875C85.3213 25.6205 85.6939 23.6641 85.55 21.7112C85.4061 19.7583 84.7506 17.8762 83.6482 16.2503C82.5457 14.6244 81.0343 13.3108 79.2629 12.4389C77.4914 11.567 75.521 11.1669 73.5458 11.278C71.5706 11.3892 69.6588 12.0077 67.9985 13.0726C66.3383 14.1376 64.9871 15.6122 64.0779 17.3513L64.0349 17.4391C63.7474 18.027 63.5534 18.6552 63.4595 19.3017C63.1907 21.2122 63.6074 22.9124 64.6962 24.2216C65.8872 25.6531 67.8255 26.5046 70.151 26.6163C72.9818 26.7573 75.7966 25.9937 77.7941 24.5888L76.6192 23.889Z" fill="#2041E0"/>
<path d="M78.9877 25.2779C77.8612 26.2465 75.2427 28.0026 70.8983 28.2421C66.035 28.5082 64.0079 26.9436 63.9891 26.9276L63.5966 27.4066L63.9918 26.9356L63.1987 27.8776C63.2848 27.9494 65.2285 29.5033 69.7934 29.5033C70.167 29.5033 70.5596 29.5033 70.9682 29.4714C76.2186 29.1814 79.1033 26.9143 80.1087 25.9458L78.9877 25.2779Z" fill="#2041E0"/>
<path d="M81.0955 26.5445C80.4294 27.4111 79.6095 28.1504 78.6759 28.7264C75.3853 30.8284 71.1995 31.0998 68.2691 30.9535L68.2073 32.1801C68.6993 32.2041 69.1724 32.2147 69.6321 32.2147C77.8963 32.2147 81.2353 28.4896 82.1681 27.1591L81.0928 26.5338" fill="#2041E0"/>
<path d="M80.7808 21.9013C81.3287 21.9013 81.7729 21.4617 81.7729 20.9195C81.7729 20.3772 81.3287 19.9376 80.7808 19.9376C80.233 19.9376 79.7888 20.3772 79.7888 20.9195C79.7888 21.4617 80.233 21.9013 80.7808 21.9013Z" fill="#2041E0"/>
</svg>
